<?xml version="1.0" encoding="UTF-8"?>
<svg width="16px" height="16px" viewBox="0 0 16 16" version="1.1" xmlns="http://www.w3.org/2000/svg">
    <title>CAPTCHA Icon</title>
    <g stroke="none" stroke-width="1" fill="none" fill-rule="evenodd">
        <rect stroke="#6B46C1" stroke-width="1.5" x="1.75" y="1.75" width="12.5" height="12.5" rx="2"></rect>
        <path d="M4,5 C4.55228475,5 5,5.44771525 5,6 L5,10 C5,10.5522847 4.55228475,11 4,11 C3.44771525,11 3,10.5522847 3,10 L3,6 C3,5.44771525 3.44771525,5 4,5 Z" fill="#6B46C1"></path>
        <path d="M8,4 C9.1045695,4 10,4.8954305 10,6 C10,7.1045695 9.1045695,8 8,8 L8,10 C8,10.5522847 7.55228475,11 7,11 C6.44771525,11 6,10.5522847 6,10 L6,5 C6,4.44771525 6.44771525,4 7,4 L8,4 Z" fill="#6B46C1"></path>
        <path d="M13,5 C13.5522847,5 14,5.44771525 14,6 L14,10 C14,10.5522847 13.5522847,11 13,11 C12.4477153,11 12,10.5522847 12,10 L12,8 L11,8 C10.4477153,8 10,7.55228475 10,7 C10,6.44771525 10.4477153,6 11,6 L12,6 L12,6 L12,6 C12,5.44771525 12.4477153,5 13,5 Z" fill="#6B46C1"></path>
    </g>
</svg>
