<svg width="32" height="32" viewBox="0 0 32 32" fill="none" xmlns="http://www.w3.org/2000/svg">
  <rect width="32" height="32" rx="8" fill="#EBF5FF"/>
  <path d="M11 7H7.5C6.12 7 5 8.12 5 9.5V12.5C5 13.88 6.12 15 7.5 15H11C12.38 15 13.5 13.88 13.5 12.5V9.5C13.5 8.12 12.38 7 11 7Z" fill="#0D6EFD" stroke="#0D6EFD" stroke-width="2" stroke-linecap="round" stroke-linejoin="round"/>
  <path d="M24.5 7H21C19.62 7 18.5 8.12 18.5 9.5V12.5C18.5 13.88 19.62 15 21 15H24.5C25.88 15 27 13.88 27 12.5V9.5C27 8.12 25.88 7 24.5 7Z" fill="#0D6EFD" stroke="#0D6EFD" stroke-width="2" stroke-linecap="round" stroke-linejoin="round"/>
  <path d="M11 18H7.5C6.12 18 5 19.12 5 20.5V23.5C5 24.88 6.12 26 7.5 26H11C12.38 26 13.5 24.88 13.5 23.5V20.5C13.5 19.12 12.38 18 11 18Z" fill="#0D6EFD" stroke="#0D6EFD" stroke-width="2" stroke-linecap="round" stroke-linejoin="round"/>
  <path d="M24.5 18H21C19.62 18 18.5 19.12 18.5 20.5V23.5C18.5 24.88 19.62 26 21 26H24.5C25.88 26 27 24.88 27 23.5V20.5C27 19.12 25.88 18 24.5 18Z" fill="#0D6EFD" stroke="#0D6EFD" stroke-width="2" stroke-linecap="round" stroke-linejoin="round"/>
</svg>